<mxfile host="app.diagrams.net" modified="2023-11-04T22:17:20.709Z" agent="Mozilla/5.0 (Windows NT 10.0; Win64; x64) AppleWebKit/537.36 (KHTML, like Gecko) Chrome/119.0.0.0 Safari/537.36" version="22.0.8" etag="P0yUu3IJ8ThodyG3WDBV" type="github">
  <diagram name="Page-1" id="XlE-0C6o8y30-eeL6oOy">
    <mxGraphModel>
      <root>
        <mxCell id="0" />
        <mxCell id="1" parent="0" />
      </root>
    </mxGraphModel>
  </diagram>
</mxfile>
